#!OML:ASF H:\MichaelJackson\Top Level 1\Subject 1\Session 1\male.ASF
:FULLY-SPECIFIED
:DEGREES
497
root 5.97966 15.3663 27.8958 9.4843 14.9309 -0.0334265
lowerback 9.49576 1.88443 -1.0979
upperback 3.40349 2.39273 -0.723217
thorax -1.80168 1.19597 -0.390004
lowerneck -6.40322 -7.30709 -1.91263
upperneck -3.97683 -9.5626 5.93397
head 0.231984 -4.74134 1.94009
rclavicle 5.82191e-014 -3.02153e-014
rhumerus -50.558 16.2919 -102.727
rradius 100.428
rwrist 9.41887
rhand -34.2227 -18.0402
rfingers 7.12502
rthumb -7.3945 -407.891
lclavicle 5.82191e-014 -3.02153e-014
lhumerus -61.2517 -31.2108 112.547
lradius 109.359
lwrist 28.3316
lhand -5.25444 4.94342
lfingers 7.12502
lthumb 20.5489 33.8759
rfemur -30.8354 2.33498 6.48529
rtibia 82.7557
rfoot 4.46835 -14.0283
rtoes 14.0802
lfemur -50.6085 9.07689 -19.8734
ltibia 60.5126
lfoot -19.5921 0.698549
ltoes 2.50231
498
root 6.03073 15.3769 27.9421 9.37061 15.3144 0.313244
lowerback 9.60827 1.79843 -1.38469
upperback 3.45943 2.24934 -0.848428
thorax -1.81085 1.12443 -0.345549
lowerneck -6.42242 -7.32654 -2.16322
upperneck -3.60508 -9.58921 5.96045
head 0.368097 -4.74601 1.98051
rclavicle 9.83984e-015 1.5704e-014
rhumerus -50.0066 16.525 -102.593
rradius 99.0646
rwrist 9.13525
rhand -35.3198 -17.0743
rfingers 7.12502
rthumb -8.45336 -406.885
lclavicle 9.83984e-015 1.5704e-014
lhumerus -60.85 -31.3084 112.387
lradius 108.578
lwrist 28.8731
lhand -5.39554 5.14237
lfingers 7.12502
lthumb 20.4133 34.0894
rfemur -32.5138 1.84145 7.0367
rtibia 84.335
rfoot 2.53701 -12.1004
rtoes 10.4037
lfemur -50.1461 9.0462 -20.4378
ltibia 60.4119
lfoot -19.8541 0.229133
ltoes 3.22945
499
root 6.07973 15.3888 27.9886 9.22496 15.6262 0.639303
lowerback 9.72297 1.72656 -1.68393
upperback 3.51128 2.123 -0.964492
thorax -1.82545 1.06124 -0.286413
lowerneck -6.42045 -7.32298 -2.41306
upperneck -3.13978 -9.58908 5.94085
head 0.527032 -4.73724 2.00642
rclavicle -5.24792e-014 1.09332e-014
rhumerus -49.2588 16.6524 -102.411
rradius 97.4084
rwrist 8.31627
rhand -36.2123 -17.0917
rfingers 7.12502
rthumb -9.31467 -406.866
lclavicle -5.24792e-014 1.09332e-014
lhumerus -60.2991 -31.389 112.158
lradius 107.512
lwrist 29.3337
lhand -5.69512 5.25157
lfingers 7.12502
lthumb 20.1254 34.2292
rfemur -34.1902 1.50619 7.67991
rtibia 85.6467
rfoot 0.493722 -10.3206
rtoes 7.50473
lfemur -49.6366 9.10654 -20.9746
ltibia 60.2974
lfoot -20.1023 -0.244137
ltoes 3.91192
500
root 6.12697 15.4019 28.0352 9.04668 15.8731 0.943442
lowerback 9.83737 1.66639 -1.99036
upperback 3.55917 2.01092 -1.07303
thorax -1.84374 1.00504 -0.216864
lowerneck -6.39107 -7.29902 -2.6519
upperneck -2.59034 -9.56557 5.87477
head 0.704368 -4.7174 2.01653
rclavicle -5.67033e-014 2.36554e-014
rhumerus -48.2866 16.651 -102.184
rradius 95.4614
rwrist 6.73223
rhand -36.6623 -18.2729
rfingers 7.12502
rthumb -9.74879 -408.027
lclavicle -5.67033e-014 2.36554e-014
lhumerus -59.5946 -31.443 111.86
lradius 106.15
lwrist 29.6768
lhand -6.1562 5.31776
lfingers 7.12502
lthumb 19.6822 34.3414
rfemur -35.848 1.3266 8.40979
rtibia 86.6542
rfoot -1.50914 -8.70599
rtoes 5.31602
lfemur -49.0821 9.24304 -21.4786
ltibia 60.1708
lfoot -20.3385 -0.713101
ltoes 4.55277
501
root 6.17271 15.4167 28.0821 8.82537 16.0716 1.23612
lowerback 9.9619 1.6117 -2.30855
upperback 3.60851 1.90404 -1.17974
thorax -1.8657 0.951375 -0.13946
lowerneck -6.33462 -7.25876 -2.85886
upperneck -1.97117 -9.52431 5.76078
head 0.894684 -4.68997 2.00703
rclavicle 1.27719e-014 -5.56597e-015
rhumerus -47.0732 16.4906 -101.927
rradius 93.2401
rwrist 4.14181
rhand -36.6973 -20.6319
rfingers 7.12502
rthumb -9.78263 -410.385
lclavicle 1.27719e-014 -5.56597e-015
lhumerus -58.7304 -31.462 111.486
lradius 104.487
lwrist 29.8577
lhand -6.78683 5.22263
lfingers 7.12502
lthumb 19.0758 34.3072
rfemur -37.4507 1.28944 9.20866
rtibia 87.3233
rfoot -3.33985 -7.26404
rtoes 3.67113
lfemur -48.4618 9.43023 -21.9531
ltibia 60.0282
lfoot -20.5689 -1.16866
ltoes 5.14726
502
root 6.21704 15.4323 28.129 8.58807 16.1921 1.51164
lowerback 10.0735 1.5715 -2.63535
upperback 3.65306 1.81495 -1.29029
thorax -1.88504 0.906486 -0.0627521
lowerneck -6.26105 -7.20996 -3.02492
upperneck -1.30661 -9.47463 5.61017
head 1.09259 -4.65981 1.97977
rclavicle 2.69353e-014 -2.3059e-014
rhumerus -45.6209 16.1259 -101.644
rradius 90.7841
rwrist 0.422569
rhand -36.4094 -23.995
rfingers 7.12502
rthumb -9.50484 -413.761
lclavicle 2.69353e-014 -2.3059e-014
lhumerus -57.7075 -31.4378 111.03
lradius 102.532
lwrist 29.8472
lhand -7.5258 5.06983
lfingers 7.12502
lthumb 18.3651 34.2229
rfemur -39.034 1.41122 10.0613
rtibia 87.6362
rfoot -4.88746 -6.03228
rtoes 2.28533
lfemur -47.8127 9.67363 -22.3951
ltibia 59.8721
lfoot -20.7913 -1.58806
ltoes 5.69883
503
root 6.2596 15.449 28.1761 8.33451 16.259 1.78271
lowerback 10.1839 1.53774 -2.98442
upperback 3.69508 1.73135 -1.40489
thorax -1.90618 0.864247 0.0217299
lowerneck -6.17837 -7.15672 -3.14478
upperneck -0.633753 -9.42043 5.43316
head 1.28815 -4.62901 1.93724
rclavicle 5.51627e-014 -2.96189e-014
rhumerus -43.9745 15.5119 -101.336
rradius 88.1802
rwrist -4.45736
rhand -36.0637 -28.1294
rfingers 7.12502
rthumb -9.17126 -417.91
lclavicle 5.51627e-014 -2.96189e-014
lhumerus -56.5354 -31.3577 110.499
lradius 100.296
lwrist 29.6134
lhand -8.32292 4.88757
lfingers 7.12502
lthumb 17.5981 34.1111
rfemur -40.5682 1.6617 10.9467
rtibia 87.582
rfoot -6.12511 -5.06012
rtoes 1.22266
lfemur -47.1273 9.93933 -22.8094
ltibia 59.6999
lfoot -21.0092 -1.96304
ltoes 6.20532
504
root 6.30071 15.4662 28.2233 8.07287 16.2903 2.06266
lowerback 10.302 1.50421 -3.35731
upperback 3.73533 1.64434 -1.52725
thorax -1.93278 0.820315 0.111807
lowerneck -6.10497 -7.10402 -3.21685
upperneck 0.0100552 -9.36674 5.24374
head 1.47351 -4.59977 1.88329
rclavicle 2.71341e-014 -1.17283e-014
rhumerus -42.2147 14.6003 -101.002
rradius 85.5406
rwrist -10.1876
rhand -36.0556 -32.8353
rfingers 7.12502
rthumb -9.16344 -422.616
lclavicle 2.71341e-014 -1.17283e-014
lhumerus -55.2292 -31.2091 109.893
lradius 97.8075
lwrist 29.1464
lhand -9.02595 4.73433
lfingers 7.12502
lthumb 16.9215 34.0172
rfemur -42.0401 2.00473 11.8361
rtibia 87.1645
rfoot -7.05285 -4.36864
rtoes 0.658678
lfemur -46.4127 10.196 -23.2076
ltibia 59.5136
lfoot -21.222 -2.28018
ltoes 6.65755
505
root 6.34021 15.4836 28.2705 7.80277 16.2933 2.3397
lowerback 10.4447 1.47032 -3.74644
upperback 3.77148 1.5529 -1.64872
thorax -1.97643 0.774369 0.211842
lowerneck -6.05224 -7.05724 -3.24758
upperneck 0.582488 -9.31902 5.05704
head 1.63837 -4.57452 1.8237
rclavicle 6.05299e-014 -2.46493e-014
rhumerus -40.4593 13.3764 -100.634
rradius 82.991
rwrist -16.181
rhand -36.5959 -37.9619
rfingers 7.12502
rthumb -9.68481 -427.719
lclavicle 6.05299e-014 -2.46493e-014
lhumerus -53.8221 -30.9763 109.234
lradius 95.108
lwrist 28.4383
lhand -9.5048 4.71718
lfingers 7.12502
lthumb 16.4605 34.0389
rfemur -43.443 2.42016 12.7298
rtibia 86.3961
rfoot -7.71524 -3.96841
rtoes 0.5796
lfemur -45.6764 10.4319 -23.576
ltibia 59.3166
lfoot -21.4309 -2.53548
ltoes 7.04146
506
root 6.37826 15.5009 28.3178 7.53056 16.2734 2.60811
lowerback 10.6112 1.43668 -4.15149
upperback 3.8019 1.45753 -1.7613
thorax -2.03847 0.726744 0.329986
lowerneck -6.02268 -7.01904 -3.25581
upperneck 1.04027 -9.27924 4.89966
head 1.7716 -4.55385 1.77052
rclavicle -4.04527e-014 6.75868e-015
rhumerus -38.8606 11.8927 -100.254
rradius 80.6345
rwrist -21.5622
rhand -37.64 -43.2292
rfingers 7.12502
rthumb -10.692 -432.937
lclavicle -4.04527e-014 6.75868e-015
lhumerus -52.368 -30.6475 108.552
lradius 92.2691
lwrist 27.512
lhand -9.66295 4.82121
lfingers 7.12502
lthumb 16.3082 34.1555
rfemur -44.7713 2.89529 13.6199
rtibia 85.2933
rfoot -8.17798 -3.8349
rtoes 0.943506
lfemur -44.9304 10.6445 -23.9115
ltibia 59.1153
lfoot -21.6393 -2.73084
ltoes 7.34199
507
root 6.41535 15.5178 28.3655 7.26199 16.2565 2.85946
lowerback 10.8051 1.39679 -4.55621
upperback 3.82392 1.35068 -1.85863
thorax -2.12294 0.673951 0.464707
lowerneck -6.02313 -6.99079 -3.25032
upperneck 1.35606 -9.24879 4.78656
head 1.86653 -4.53803 1.73
rclavicle 5.06901e-015 -1.63003e-014
rhumerus -37.5696 10.2951 -99.9061
rradius 78.5817
rwrist -25.5222
rhand -38.9541 -48.2407
rfingers 7.12502
rthumb -11.9594 -437.879
lclavicle 5.06901e-015 -1.63003e-014
lhumerus -50.9387 -30.2259 107.883
lradius 89.3926
lwrist 26.3979
lhand -9.46193 4.98037
lfingers 7.12502
lthumb 16.5017 34.2986
rfemur -46.0229 3.39151 14.503
rtibia 83.8769
rfoot -8.52323 -3.90534
rtoes 1.56
lfemur -44.1906 10.82 -24.2104
ltibia 58.9174
lfoot -21.8517 -2.88674
ltoes 7.63899
508
root 6.45211 15.5339 28.4135 7.00534 16.2536 3.07817
lowerback 11.0128 1.3457 -4.9423
upperback 3.83682 1.22836 -1.93274
thorax -2.22266 0.614073 0.615102
lowerneck -6.05324 -6.9711 -3.24368
upperneck 1.51017 -9.22549 4.73262
head 1.91782 -4.5257 1.70936
rclavicle 9.2733e-014 -5.1684e-014
rhumerus -36.6956 8.79552 -99.6257
rradius 76.9391
rwrist -27.516
rhand -40.1221 -52.5928
rfingers 7.12502
rthumb -13.0855 -442.162
lclavicle 9.2733e-014 -5.1684e-014
lhumerus -49.6208 -29.7151 107.27
lradius 86.6233
lwrist 25.1249
lhand -8.96991 5.22933
lfingers 7.12502
lthumb 16.9754 34.5075
rfemur -47.2066 3.88638 15.3834
rtibia 82.1689
rfoot -8.80715 -4.07624
rtoes 2.0894
lfemur -43.4776 10.9634 -24.4649
ltibia 58.7308
lfoot -22.0676 -3.01815
ltoes 7.92661
